<?xml version="1.0" encoding="UTF-8"?>
<svg id="Layer_1" data-name="Layer 1" xmlns="http://www.w3.org/2000/svg" viewBox="0 0 863.74 180.79">
  <defs>
    <style>
      .cls-1 {
        fill: #ca3634;
      }
    </style>
  </defs>
  <path class="cls-1" d="m41.66.01c24.82.54,41.73,17.74,40.88,43,0,2.15,0,3.22,0,5.37-10.5.18-15.75.28-26.25.48,0-2.86,0-4.29,0-7.15,0-12.34-5.04-16.97-13.88-16.89-8.84.09-13.94,4.93-13.89,17.35.06,15.97,12.45,27.68,23.71,37.16,16.33,13.74,30.3,29.85,30.51,52.59.24,25.06-16.57,43.45-41.39,45.78C15.27,180.14.07,161.15,0,136.35v-10.86c10.49-.57,15.74-.85,26.23-1.39,0,4.99,0,7.49,0,12.48,0,12.48,5.54,16.62,14.37,16.08,8.83-.54,14.29-5.4,14.39-17.65.12-15.52-12.91-27.62-23.7-36.59C14.56,84.54.58,68.09.76,44.43.94,19.83,15.49-.55,41.66.01Z"/>
  <path class="cls-1" d="m140.03,138.74l.5-.02c6.98-45.61,14-91.21,21.05-136.8,10.2,0,15.3,0,25.5-.01-9.19,55.57-18.33,111.16-27.39,166.75-13.8.68-27.6,1.4-41.4,2.18-9.12-56.28-18.18-112.57-27.16-168.87,9.34,0,18.68-.01,28.03-.02,6.91,45.61,13.87,91.21,20.86,136.8Z"/>
  <path class="cls-1" d="m227.69,70.94c12.71-.2,25.42-.38,38.13-.54l-.02,23.23c-12.71.22-25.42.46-38.13.72-.01,16-.02,31.99-.04,47.99,15.99-.5,31.99-.95,47.99-1.34,0,9.28,0,13.91-.01,23.19-25.26.74-50.52,1.62-75.77,2.64.04-54.98.08-109.96.12-164.94,25.25-.01,50.5-.02,75.75-.03,0,9.28,0,13.91-.01,23.19-15.99.07-31.98.15-47.98.24-.01,15.22-.02,30.43-.03,45.65Z"/>
  <path class="cls-1" d="m292.88,1.86c11.11,0,16.66,0,27.77,0-.02,46.07-.04,92.14-.07,138.22,15.24-.25,30.48-.46,45.73-.62,0,9.17,0,13.76,0,22.93-24.51.31-49.01.77-73.52,1.35.03-53.96.06-107.91.09-161.87Z"/>
  <path class="cls-1" d="m357.77,1.85c28.62,0,57.23,0,85.85,0,0,9.15,0,13.73,0,22.88-9.68,0-19.36,0-29.04,0,0,45.77,0,91.53-.01,137.3-11.12.03-16.68.07-27.79.16,0-45.81.02-91.62.03-137.43-9.68.01-19.36.03-29.04.05,0-9.18,0-13.77,0-22.95Z"/>
  <path class="cls-1" d="m483.52,69.44c12.71.05,25.43.12,38.14.21,0,9.19,0,13.79,0,22.98-12.71-.12-25.43-.21-38.14-.28,0,15.66,0,31.31.01,46.97,16,.13,32,.31,48,.56,0,9.2,0,13.8.01,23.01-25.27-.42-50.53-.71-75.8-.84,0-53.4-.01-106.8-.02-160.2,25.25,0,50.5,0,75.75,0,0,9.2,0,13.8.01,23.01-15.99-.04-31.99-.08-47.98-.1,0,14.89,0,29.79.01,44.68Z"/>
  <path class="cls-1" d="m576.46,73.84c11.95.14,23.91.3,35.86.47,0,9.32,0,13.98.02,23.29-11.95-.23-23.91-.44-35.86-.62.01,22.3.03,44.59.04,66.89-11.11-.29-16.67-.42-27.79-.65-.03-53.79-.05-107.58-.08-161.37,24.49,0,48.98.01,73.47.02,0,9.34.01,14,.02,23.34-15.23-.08-30.47-.15-45.7-.21,0,16.28.02,32.56.03,48.83Z"/>
  <path class="cls-1" d="m635.5,1.88c11.11,0,16.66,0,27.77.01.04,47.12.07,94.24.11,141.36,15.23.56,30.47,1.16,45.7,1.8,0,9.54.01,14.31.02,23.85-24.49-1.2-48.98-2.25-73.48-3.18-.04-54.61-.08-109.23-.12-163.84Z"/>
  <path class="cls-1" d="m721.09,1.93c11.11,0,16.66,0,27.77.02.04,56.36.07,112.73.11,169.09-11.1-.63-16.66-.94-27.76-1.51-.04-55.86-.08-111.73-.12-167.59Z"/>
  <path class="cls-1" d="m861.72,2.03c-9.59,28.26-19.26,56.5-29.02,84.7,10.46,30.64,20.81,61.32,31.03,92.04-9.75-.76-19.5-1.49-29.25-2.2-7.43-23.37-14.93-46.71-22.47-70.04-.2,0-.3-.01-.5-.02-7.51,22.33-15.07,44.64-22.68,66.94-10.39-.67-15.59-.99-25.99-1.61,10.41-28.78,20.74-57.58,30.99-86.42-9.61-27.85-19.3-55.67-29.07-83.47,9.59,0,19.19.01,28.78.02,6.95,21.27,13.86,42.54,20.73,63.84.2,0,.3,0,.5.01,7.1-21.26,14.17-42.53,21.19-63.82,10.3,0,15.45.01,25.75.02Z"/>
</svg>